<svg width="16" height="20" viewBox="0 0 16 20" fill="none" xmlns="http://www.w3.org/2000/svg">
<path fill-rule="evenodd" clip-rule="evenodd" d="M15.5076 19.75L8.35755 14.5825C8.32548 14.561 8.28778 14.5496 8.24922 14.5496C8.21065 14.5496 8.17295 14.561 8.14088 14.5825L0.990884 19.75C0.957403 19.7693 0.919349 19.7794 0.880674 19.7791C0.841999 19.7788 0.804113 19.7681 0.770949 19.7482C0.737784 19.7283 0.710551 19.6999 0.692076 19.6659C0.6736 19.6319 0.664557 19.5936 0.665884 19.555V2.57914C0.665884 2.00451 0.894157 1.45341 1.30049 1.04708C1.70681 0.640749 2.25791 0.412476 2.83255 0.412476H13.6659C14.2405 0.412476 14.7916 0.640749 15.1979 1.04708C15.6043 1.45341 15.8326 2.00451 15.8326 2.57914V19.5333C15.8383 19.5737 15.8324 19.6149 15.8157 19.6522C15.799 19.6894 15.7722 19.7212 15.7382 19.7439C15.7042 19.7665 15.6646 19.7791 15.6238 19.7802C15.583 19.7813 15.5427 19.7708 15.5076 19.75V19.75Z" fill="#0064FE"/>
</svg>
