<svg width="28" height="24" viewBox="0 0 28 24" fill="none" xmlns="http://www.w3.org/2000/svg">
<g clip-path="url(#clip0_244_1290)">
<path d="M10.4269 23.9164H7.04636V20.4063" fill="#0064FE"/>
<path opacity="0.4" d="M20.3546 23.5961H10.8976L7.04636 19.5984V10.9483L20.3546 23.5961Z" fill="#0064FE"/>
<path d="M27.7575 16.715C27.6861 16.6494 27.5917 16.6129 27.4936 16.6129C27.3956 16.6129 27.3012 16.6494 27.2298 16.715L20.8823 22.9832L7.58839 10.3633L17.5731 0.766104C17.6403 0.696348 17.6777 0.604185 17.6777 0.508414C17.6777 0.412643 17.6403 0.32048 17.5731 0.250724C17.5386 0.216611 17.4975 0.189526 17.4522 0.17104C17.4069 0.152554 17.3583 0.143035 17.3092 0.143035C17.2601 0.143035 17.2115 0.152554 17.1662 0.17104C17.1209 0.189526 17.0798 0.216611 17.0453 0.250724L6.78961 10.0987C6.78961 10.0987 6.78961 10.0987 6.78961 10.1822C6.78961 10.2658 6.78961 10.1822 6.78961 10.1822V22.9553H0.5135C0.415142 22.9553 0.320812 22.9935 0.251262 23.0614C0.181712 23.1293 0.142639 23.2214 0.142639 23.3175C0.142639 23.4135 0.181712 23.5056 0.251262 23.5736C0.320812 23.6415 0.415142 23.6796 0.5135 23.6796H20.8823C20.9286 23.6945 20.9786 23.6945 21.025 23.6796C21.0769 23.6683 21.1227 23.6385 21.1533 23.5961L27.7575 17.0354C27.7817 16.9853 27.7942 16.9306 27.7942 16.8752C27.7942 16.8198 27.7817 16.7651 27.7575 16.715ZM10.6409 23.1782L7.43148 19.9466V11.2269L19.9694 23.1364L10.6409 23.1782ZM7.43148 20.9913L9.58533 23.1364H7.43148V20.9913Z" fill="#191919"/>
<path d="M20.8823 24.0002H0.5135C0.446066 24.0002 0.379293 23.9873 0.316992 23.9621C0.254691 23.9369 0.198083 23.8999 0.150401 23.8534C0.102718 23.8068 0.0648936 23.7515 0.0390878 23.6907C0.0132821 23.6298 0 23.5646 0 23.4988C0 23.4329 0.0132821 23.3677 0.0390878 23.3069C0.0648936 23.2461 0.102718 23.1908 0.150401 23.1442C0.198083 23.0976 0.254691 23.0607 0.316992 23.0355C0.379293 23.0103 0.446066 22.9973 0.5135 22.9973H6.54712V10.2939C6.54712 10.2939 6.54712 10.2103 6.54712 10.1686C6.54712 10.1686 6.54712 10.1686 6.61844 10.085L16.9883 0.139533C17.0866 0.0453299 17.2193 -0.00685927 17.3571 -0.00555315C17.4948 -0.00424703 17.6264 0.0504474 17.7229 0.146498C17.8193 0.242548 17.8728 0.372087 17.8714 0.506617C17.8701 0.641147 17.8141 0.769648 17.7157 0.863851L7.73102 10.3636L20.8253 22.7884L27.1014 16.576C27.1491 16.5292 27.2058 16.4921 27.2682 16.4668C27.3306 16.4415 27.3975 16.4285 27.4651 16.4285C27.5327 16.4285 27.5996 16.4415 27.662 16.4668C27.7244 16.4921 27.7811 16.5292 27.8288 16.576C27.919 16.6733 27.969 16.7999 27.969 16.9312C27.969 17.0625 27.919 17.189 27.8288 17.2864L21.2532 23.847C21.2123 23.9037 21.1513 23.9434 21.082 23.9585C21.0195 23.9869 20.9513 24.0012 20.8823 24.0002ZM0.5135 23.2759C0.452972 23.2759 0.394922 23.2994 0.352122 23.3412C0.309322 23.383 0.285278 23.4397 0.285278 23.4988C0.285278 23.5579 0.309322 23.6146 0.352122 23.6564C0.394922 23.6982 0.452972 23.7217 0.5135 23.7217H20.9822L27.5863 17.1471C27.6319 17.1028 27.6575 17.0427 27.6577 16.9799C27.6553 16.9217 27.6297 16.8667 27.5863 16.8267C27.5663 16.8033 27.5412 16.7845 27.5128 16.7715C27.4845 16.7586 27.4536 16.7519 27.4223 16.7519C27.391 16.7519 27.3601 16.7586 27.3318 16.7715C27.3035 16.7845 27.2784 16.8033 27.2583 16.8267L20.9109 23.1366C20.8842 23.1622 20.8483 23.1764 20.811 23.1764C20.7737 23.1764 20.7378 23.1622 20.7112 23.1366L7.48854 10.4611C7.47767 10.4294 7.47767 10.3952 7.48854 10.3636C7.48097 10.3484 7.47704 10.3317 7.47704 10.3148C7.47704 10.2979 7.48097 10.2812 7.48854 10.2661L17.4733 0.668843C17.5188 0.624553 17.5444 0.564436 17.5446 0.501692C17.5422 0.443479 17.5166 0.388479 17.4733 0.348471C17.452 0.326988 17.4265 0.309904 17.3983 0.298237C17.3701 0.286569 17.3398 0.280557 17.3092 0.280557C17.2786 0.280557 17.2483 0.286569 17.2201 0.298237C17.192 0.309904 17.1665 0.326988 17.1452 0.348471L6.90372 10.1825V23.0391C6.90372 23.0761 6.88869 23.1115 6.86194 23.1376C6.83519 23.1637 6.79891 23.1784 6.76108 23.1784L0.5135 23.2759ZM19.9694 23.2759H10.6409C10.6251 23.2824 10.6081 23.2858 10.5909 23.2858C10.5738 23.2858 10.5568 23.2824 10.541 23.2759L7.33164 20.0443C7.32076 20.0127 7.32076 19.9785 7.33164 19.9468V11.2272C7.33434 11.195 7.34967 11.165 7.37443 11.1436C7.3969 11.1267 7.42449 11.1175 7.45288 11.1175C7.48127 11.1175 7.50886 11.1267 7.53133 11.1436L20.0693 23.0531C20.0831 23.0763 20.0903 23.1028 20.0903 23.1297C20.0903 23.1566 20.0831 23.183 20.0693 23.2063C20.0583 23.2238 20.0438 23.2391 20.0266 23.251C20.0095 23.263 19.99 23.2715 19.9694 23.2759ZM10.6979 22.9973H19.6271L7.57412 11.5475V19.9051L10.6979 22.9973ZM9.58533 23.2759H7.43148C7.41275 23.2759 7.3942 23.2723 7.3769 23.2653C7.35959 23.2583 7.34387 23.2481 7.33062 23.2351C7.31738 23.2222 7.30687 23.2068 7.2997 23.1899C7.29253 23.173 7.28884 23.1549 7.28884 23.1366V20.9915C7.29278 20.9693 7.30281 20.9484 7.31788 20.9313C7.33295 20.9141 7.35248 20.9012 7.37443 20.894C7.3969 20.8771 7.42449 20.8679 7.45288 20.8679C7.48127 20.8679 7.50886 20.8771 7.53133 20.894L9.68518 23.0391C9.70253 23.0611 9.71194 23.088 9.71194 23.1157C9.71194 23.1435 9.70253 23.1704 9.68518 23.1923C9.67662 23.2131 9.66308 23.2315 9.6457 23.246C9.62833 23.2606 9.60762 23.2708 9.58533 23.2759ZM7.57412 22.9973H9.25726L7.57412 21.3258V22.9973Z" fill="#191919"/>
<path d="M13.5935 14.1521C13.6297 14.1852 13.6723 14.2109 13.7189 14.2276C13.7654 14.2444 13.8149 14.2518 13.8645 14.2496C13.9131 14.2507 13.9613 14.2413 14.0057 14.222C14.0501 14.2028 14.0896 14.1741 14.1212 14.1381L27.7575 0.766103C27.8257 0.694045 27.8635 0.599548 27.8635 0.501448C27.8635 0.403349 27.8257 0.308851 27.7575 0.236794C27.723 0.202681 27.6819 0.175596 27.6366 0.15711C27.5913 0.138624 27.5427 0.129105 27.4936 0.129105C27.4445 0.129105 27.3959 0.138624 27.3506 0.15711C27.3053 0.175596 27.2643 0.202681 27.2298 0.236794L13.5935 13.6227C13.5253 13.6948 13.4875 13.7893 13.4875 13.8874C13.4875 13.9855 13.5253 14.08 13.5935 14.1521Z" fill="#191919"/>
<path d="M13.8645 14.3889C13.7278 14.3873 13.5962 14.3379 13.4936 14.2496C13.4458 14.203 13.4078 14.1476 13.3819 14.0867C13.3559 14.0257 13.3426 13.9604 13.3426 13.8944C13.3426 13.8284 13.3559 13.763 13.3819 13.7021C13.4078 13.6411 13.4458 13.5858 13.4936 13.5392L27.1014 0.153219C27.1511 0.102865 27.211 0.0632206 27.2773 0.0368331C27.3437 0.0104457 27.4149 -0.0021014 27.4865 -1.92168e-06C27.6232 0.00153528 27.7548 0.0509656 27.8574 0.13929C27.9053 0.186906 27.9426 0.243619 27.9672 0.305915C27.9917 0.368211 28.0029 0.434763 28 0.501449C28.0036 0.566128 27.9927 0.630788 27.968 0.690927C27.9434 0.751067 27.9056 0.805241 27.8574 0.849679L14.2639 14.2356C14.2126 14.2878 14.1503 14.3285 14.0814 14.3549C14.0124 14.3814 13.9384 14.393 13.8645 14.3889ZM13.6933 14.0546C13.7381 14.0947 13.7966 14.117 13.8574 14.117C13.9181 14.117 13.9767 14.0947 14.0214 14.0546L27.6577 0.668599C27.6989 0.621652 27.7239 0.56313 27.729 0.501449C27.7239 0.439768 27.6989 0.381246 27.6577 0.334299C27.6028 0.312614 27.5414 0.312614 27.4865 0.334299C27.4361 0.314896 27.38 0.314896 27.3296 0.334299L13.6933 13.7203C13.6512 13.7662 13.628 13.8257 13.628 13.8874C13.628 13.9491 13.6512 14.0086 13.6933 14.0546Z" fill="#191919"/>
<path d="M27.2297 6.9646L20.4116 13.6506C20.3434 13.7227 20.3056 13.8172 20.3056 13.9153C20.3056 14.0134 20.3434 14.1079 20.4116 14.1799C20.4812 14.2434 20.5731 14.2783 20.6684 14.2774C20.7192 14.2797 20.7699 14.2708 20.8167 14.2516C20.8636 14.2323 20.9055 14.2031 20.9394 14.166L27.7575 7.47998C27.7922 7.44614 27.8197 7.40596 27.8384 7.36175C27.8572 7.31753 27.8668 7.27014 27.8668 7.22229C27.8668 7.17443 27.8572 7.12704 27.8384 7.08283C27.8197 7.03861 27.7922 6.99844 27.7575 6.9646C27.7229 6.93076 27.6817 6.90391 27.6364 6.8856C27.5912 6.86728 27.5426 6.85786 27.4936 6.85786C27.4446 6.85786 27.3961 6.86728 27.3508 6.8856C27.3055 6.90391 27.2644 6.93076 27.2297 6.9646Z" fill="#191919"/>
<path d="M20.6684 14.3889C20.5363 14.3852 20.4099 14.3359 20.3118 14.2496C20.262 14.2026 20.2224 14.1464 20.1954 14.0841C20.1685 14.0219 20.1547 13.955 20.1549 13.8874C20.154 13.8218 20.1676 13.7568 20.1947 13.6967C20.2218 13.6366 20.2617 13.5829 20.3118 13.5392L27.1014 6.83923C27.1491 6.79248 27.2058 6.75539 27.2682 6.73008C27.3306 6.70477 27.3975 6.69175 27.4651 6.69175C27.5327 6.69175 27.5996 6.70477 27.662 6.73008C27.7244 6.75539 27.7811 6.79248 27.8288 6.83923C27.875 6.88521 27.9113 6.93965 27.9358 6.99942C27.9603 7.05919 27.9724 7.1231 27.9715 7.18746C27.9744 7.25415 27.9632 7.3207 27.9386 7.383C27.9141 7.44529 27.8767 7.50201 27.8288 7.54962L21.0107 14.2356C20.9206 14.3272 20.7982 14.382 20.6684 14.3889ZM27.3296 7.03424L20.5115 13.7203C20.4702 13.7672 20.4452 13.8257 20.4401 13.8874C20.4418 13.9499 20.4672 14.0095 20.5115 14.0546C20.5562 14.0947 20.6147 14.117 20.6755 14.117C20.7362 14.117 20.7948 14.0947 20.8395 14.0546L27.6577 7.35461C27.7032 7.31032 27.7288 7.25021 27.729 7.18746C27.7266 7.12925 27.701 7.07425 27.6577 7.03424C27.6129 6.99411 27.5544 6.97184 27.4936 6.97184C27.4329 6.97184 27.3743 6.99411 27.3296 7.03424Z" fill="#191919"/>
</g>
<defs>
<clipPath id="clip0_244_1290">
<rect width="28" height="24" fill="white"/>
</clipPath>
</defs>
</svg>
