<svg width="28" height="28" viewBox="0 0 28 28" fill="none" xmlns="http://www.w3.org/2000/svg">
<g clip-path="url(#clip0_244_1315)">
<path opacity="0.4" d="M27.1371 0.393752H0V6.19792H27.1371V0.393752Z" fill="#0064FE"/>
<path d="M27.4823 0.145832H0.575244C0.476077 0.145832 0.380972 0.18578 0.31085 0.256887C0.240729 0.327995 0.201335 0.424437 0.201335 0.524999V27.475C0.201335 27.5248 0.211006 27.5741 0.229797 27.6201C0.248588 27.6661 0.27613 27.7079 0.31085 27.7431C0.345571 27.7783 0.38679 27.8062 0.432155 27.8253C0.47752 27.8444 0.526141 27.8542 0.575244 27.8542H27.4823C27.5314 27.8542 27.58 27.8444 27.6254 27.8253C27.6707 27.8062 27.712 27.7783 27.7467 27.7431C27.7814 27.7079 27.8089 27.6661 27.8277 27.6201C27.8465 27.5741 27.8562 27.5248 27.8562 27.475V0.524999C27.8562 0.475206 27.8465 0.425901 27.8277 0.379898C27.8089 0.333895 27.7814 0.292096 27.7467 0.256887C27.712 0.221679 27.6707 0.193749 27.6254 0.174694C27.58 0.155639 27.5314 0.145832 27.4823 0.145832ZM27.094 0.904165V5.71667H0.949152V0.904165H27.094ZM0.949152 27.0812V6.475H27.094V27.0812H0.949152Z" fill="#191919"/>
<path d="M27.4823 27.9999H0.575243C0.502584 28.0081 0.429027 28.0007 0.359416 27.978C0.289804 27.9553 0.225717 27.918 0.171373 27.8684C0.117029 27.8188 0.0736602 27.7581 0.0441222 27.6902C0.0145841 27.6224 -0.000453428 27.549 -5.57386e-07 27.4749V0.524885C-0.000453428 0.450746 0.0145841 0.37735 0.0441222 0.309529C0.0736602 0.241709 0.117029 0.181001 0.171373 0.131404C0.225717 0.0818061 0.289804 0.0444432 0.359416 0.0217746C0.429027 -0.000894018 0.502584 -0.00835425 0.575243 -0.000114967H27.4823C27.6196 -0.000114967 27.7513 0.0551974 27.8484 0.153654C27.9455 0.252111 28 0.385646 28 0.524885V27.4749C28 27.6141 27.9455 27.7477 27.8484 27.8461C27.7513 27.9446 27.6196 27.9999 27.4823 27.9999ZM0.575243 0.291552C0.51282 0.291442 0.45272 0.315551 0.407263 0.358935C0.361806 0.40232 0.334437 0.461693 0.330765 0.524885V27.4749C0.334437 27.5381 0.361806 27.5974 0.407263 27.6408C0.45272 27.6842 0.51282 27.7083 0.575243 27.7082H27.4823C27.5433 27.7082 27.6018 27.6836 27.645 27.6399C27.6881 27.5961 27.7124 27.5368 27.7124 27.4749V0.524885C27.7124 0.463001 27.6881 0.403652 27.645 0.359893C27.6018 0.316135 27.5433 0.291552 27.4823 0.291552H0.575243ZM27.094 27.227H0.949152C0.911011 27.227 0.874432 27.2116 0.847462 27.1843C0.820492 27.1569 0.805341 27.1198 0.805341 27.0811V6.47488C0.808581 6.43731 0.824773 6.4021 0.851073 6.37543C0.877373 6.34876 0.912099 6.33234 0.949152 6.32905H27.094C27.1321 6.32905 27.1687 6.34442 27.1957 6.37177C27.2227 6.39911 27.2378 6.43621 27.2378 6.47488V27.0811C27.2401 27.1008 27.238 27.1208 27.2316 27.1396C27.2252 27.1584 27.2146 27.1754 27.2008 27.1894C27.187 27.2035 27.1701 27.2142 27.1516 27.2207C27.1331 27.2272 27.1134 27.2293 27.094 27.227ZM1.09296 26.9353H26.9789V6.62072H1.09296V26.9353ZM27.094 5.83322H0.949152C0.912099 5.82993 0.877373 5.81351 0.851073 5.78684C0.824773 5.76017 0.808581 5.72496 0.805341 5.68739V0.904052C0.808581 0.866478 0.824773 0.831263 0.851073 0.804594C0.877373 0.777924 0.912099 0.761504 0.949152 0.758218H27.094C27.1321 0.758218 27.1687 0.773583 27.1957 0.800932C27.2227 0.828281 27.2378 0.865374 27.2378 0.904052V5.71655C27.2311 5.74999 27.213 5.77997 27.1867 5.80129C27.1605 5.82261 27.1276 5.83391 27.094 5.83322ZM1.09296 5.57072H26.9789V1.04989H1.09296V5.57072Z" fill="#191919"/>
<path d="M3.20698 4.60834C3.45564 4.61122 3.6995 4.53889 3.90745 4.4006C4.11539 4.2623 4.27797 4.06431 4.37445 3.83189C4.47092 3.59947 4.49691 3.34317 4.44909 3.0957C4.40127 2.84824 4.28182 2.62084 4.10598 2.44253C3.93015 2.26421 3.7059 2.14308 3.46186 2.09459C3.21783 2.04611 2.96509 2.07246 2.73589 2.17029C2.50669 2.26812 2.31144 2.43299 2.17507 2.64386C2.03869 2.85472 1.96737 3.10201 1.97021 3.35417C1.97395 3.68562 2.10545 4.00242 2.33658 4.23681C2.56772 4.4712 2.88013 4.60455 3.20698 4.60834ZM3.20698 2.85833C3.30369 2.85833 3.39823 2.88742 3.47863 2.9419C3.55904 2.99638 3.62171 3.07382 3.65872 3.16442C3.69573 3.25502 3.70541 3.35472 3.68655 3.4509C3.66768 3.54708 3.62111 3.63543 3.55273 3.70478C3.48435 3.77412 3.39722 3.82134 3.30238 3.84047C3.20753 3.85961 3.10921 3.84979 3.01987 3.81226C2.93052 3.77473 2.85416 3.71118 2.80043 3.62964C2.7467 3.5481 2.71803 3.45223 2.71803 3.35417C2.73218 3.23302 2.78988 3.12141 2.88009 3.0407C2.97029 2.95998 3.08668 2.91582 3.20698 2.91667V2.85833Z" fill="#191919"/>
<path d="M3.20699 4.75417C2.92255 4.75417 2.64451 4.66864 2.40801 4.50839C2.17152 4.34815 1.98719 4.12039 1.87835 3.85391C1.7695 3.58744 1.74102 3.29422 1.79651 3.01133C1.852 2.72844 1.98896 2.46859 2.19009 2.26464C2.39121 2.06069 2.64746 1.92179 2.92642 1.86552C3.20539 1.80925 3.49455 1.83813 3.75733 1.94851C4.02011 2.05889 4.24471 2.24581 4.40273 2.48563C4.56075 2.72545 4.6451 3.0074 4.6451 3.29583C4.6451 3.68261 4.49358 4.05354 4.22388 4.32703C3.95419 4.60052 3.5884 4.75417 3.20699 4.75417ZM3.20699 2.23125C2.98797 2.23125 2.77388 2.29711 2.59178 2.4205C2.40968 2.54388 2.26774 2.71926 2.18393 2.92445C2.10012 3.12963 2.07819 3.35541 2.12092 3.57324C2.16365 3.79106 2.26911 3.99115 2.42397 4.14819C2.57884 4.30523 2.77615 4.41218 2.99095 4.45551C3.20576 4.49884 3.42841 4.4766 3.63075 4.39161C3.83309 4.30662 4.00603 4.16269 4.12771 3.97803C4.24939 3.79336 4.31433 3.57626 4.31433 3.35417C4.31626 3.20616 4.28894 3.05926 4.23398 2.92214C4.17901 2.78501 4.09752 2.66044 3.9943 2.55578C3.89109 2.45111 3.76825 2.36847 3.63302 2.31273C3.4978 2.257 3.35294 2.22929 3.20699 2.23125ZM3.20699 3.98125C3.04163 3.98129 2.88282 3.9157 2.76456 3.7985C2.6463 3.6813 2.57798 3.52181 2.57422 3.35417C2.57422 3.18399 2.64088 3.02078 2.75955 2.90044C2.87822 2.78011 3.03917 2.7125 3.20699 2.7125C3.3723 2.71631 3.52958 2.78559 3.64515 2.90552C3.76073 3.02545 3.82542 3.18648 3.82537 3.35417C3.82537 3.43652 3.80938 3.51806 3.7783 3.59414C3.74722 3.67022 3.70167 3.73935 3.64425 3.79758C3.58683 3.85581 3.51866 3.902 3.44363 3.93352C3.36861 3.96503 3.28819 3.98125 3.20699 3.98125ZM3.20699 3.00417C3.13872 3.00417 3.07199 3.02469 3.01523 3.06315C2.95847 3.10161 2.91423 3.15627 2.88811 3.22023C2.86199 3.28418 2.85515 3.35456 2.86847 3.42245C2.88179 3.49034 2.91466 3.55271 2.96293 3.60166C3.0112 3.6506 3.0727 3.68394 3.13965 3.69744C3.2066 3.71095 3.276 3.70402 3.33907 3.67753C3.40213 3.65104 3.45604 3.60617 3.49396 3.54862C3.53189 3.49106 3.55213 3.42339 3.55213 3.35417C3.55213 3.26134 3.51577 3.17232 3.45104 3.10668C3.38631 3.04104 3.29852 3.00417 3.20699 3.00417Z" fill="#191919"/>
<path d="M6.34206 4.60834C6.59072 4.61122 6.83459 4.53889 7.04253 4.4006C7.25047 4.2623 7.41305 4.06431 7.50953 3.83189C7.606 3.59947 7.63199 3.34317 7.58417 3.0957C7.53636 2.84824 7.4169 2.62084 7.24107 2.44253C7.06523 2.26421 6.84098 2.14308 6.59695 2.09459C6.35291 2.04611 6.10017 2.07246 5.87097 2.17029C5.64177 2.26812 5.44652 2.43299 5.31015 2.64386C5.17377 2.85472 5.10245 3.10201 5.10529 3.35417C5.10903 3.68562 5.24053 4.00242 5.47166 4.23681C5.7028 4.4712 6.01521 4.60455 6.34206 4.60834ZM6.34206 2.85833C6.4123 2.84598 6.48435 2.84935 6.55316 2.86821C6.62198 2.88707 6.68589 2.92095 6.74044 2.9675C6.79498 3.01404 6.83882 3.07211 6.8689 3.13765C6.89898 3.20318 6.91457 3.27459 6.91457 3.34688C6.91457 3.41916 6.89898 3.49057 6.8689 3.55611C6.83882 3.62164 6.79498 3.67971 6.74044 3.72626C6.68589 3.7728 6.62198 3.80669 6.55316 3.82554C6.48435 3.8444 6.4123 3.84777 6.34206 3.83542C6.27183 3.84777 6.19978 3.8444 6.13097 3.82554C6.06215 3.80669 5.99823 3.7728 5.94369 3.72626C5.88915 3.67971 5.84531 3.62164 5.81523 3.55611C5.78515 3.49057 5.76956 3.41916 5.76956 3.34688C5.76956 3.27459 5.78515 3.20318 5.81523 3.13765C5.84531 3.07211 5.88915 3.01404 5.94369 2.9675C5.99823 2.92095 6.06215 2.88707 6.13097 2.86821C6.19978 2.84935 6.27183 2.84598 6.34206 2.85833Z" fill="#191919"/>
<path d="M6.34207 4.75417C6.05763 4.75417 5.77959 4.66864 5.54309 4.50839C5.3066 4.34815 5.12227 4.12039 5.01343 3.85391C4.90458 3.58744 4.8761 3.29422 4.93159 3.01133C4.98708 2.72844 5.12405 2.46859 5.32517 2.26464C5.52629 2.06069 5.78254 1.92179 6.0615 1.86552C6.34047 1.80925 6.62963 1.83813 6.89241 1.94851C7.15519 2.05889 7.37979 2.24581 7.53781 2.48563C7.69583 2.72545 7.78017 3.0074 7.78017 3.29583C7.78017 3.68261 7.62866 4.05354 7.35896 4.32703C7.08927 4.60052 6.72348 4.75417 6.34207 4.75417ZM6.34207 2.23125C6.18703 2.21325 6.02999 2.22867 5.88124 2.27652C5.7325 2.32437 5.59541 2.40356 5.47895 2.5089C5.3625 2.61424 5.26932 2.74335 5.20552 2.88776C5.14172 3.03217 5.10873 3.18863 5.10873 3.34688C5.10873 3.50512 5.14172 3.66158 5.20552 3.80599C5.26932 3.95041 5.3625 4.07951 5.47895 4.18485C5.59541 4.29019 5.7325 4.36938 5.88124 4.41723C6.02999 4.46508 6.18703 4.48051 6.34207 4.4625C6.61217 4.43113 6.86146 4.3001 7.04243 4.09436C7.22341 3.88863 7.32342 3.62257 7.32342 3.34688C7.32342 3.07118 7.22341 2.80512 7.04243 2.59939C6.86146 2.39365 6.61217 2.26262 6.34207 2.23125ZM6.34207 3.98125C6.18429 3.97035 6.03625 3.89993 5.92712 3.78387C5.81799 3.6678 5.75567 3.5145 5.75244 3.35417C5.75244 3.18399 5.81911 3.02078 5.93777 2.90044C6.05644 2.78011 6.21739 2.7125 6.38521 2.7125C6.55052 2.71631 6.7078 2.78559 6.82338 2.90552C6.93895 3.02545 7.00364 3.18648 7.0036 3.35417C7.0038 3.44033 6.9865 3.52561 6.95276 3.6047C6.91902 3.68378 6.86957 3.75496 6.8075 3.8138C6.74542 3.87264 6.67206 3.91787 6.59198 3.94669C6.5119 3.9755 6.42683 3.98726 6.34207 3.98125ZM6.34207 3.00417C6.2738 3.00417 6.20707 3.02469 6.15031 3.06315C6.09355 3.10161 6.04932 3.15627 6.02319 3.22023C5.99707 3.28418 5.99023 3.35456 6.00355 3.42245C6.01687 3.49034 6.04974 3.55271 6.09801 3.60166C6.14628 3.6506 6.20778 3.68394 6.27473 3.69744C6.34168 3.71095 6.41108 3.70402 6.47415 3.67753C6.53721 3.65104 6.59112 3.60617 6.62904 3.54862C6.66697 3.49106 6.68721 3.42339 6.68721 3.35417C6.68721 3.26134 6.65085 3.17232 6.58612 3.10668C6.52139 3.04104 6.4336 3.00417 6.34207 3.00417Z" fill="#191919"/>
<path d="M9.47714 4.60833C9.72521 4.60832 9.96767 4.53352 10.1737 4.39346C10.3798 4.25339 10.5401 4.05437 10.6344 3.82168C10.7286 3.589 10.7526 3.33315 10.7031 3.08665C10.6536 2.84015 10.5331 2.61411 10.3566 2.43727C10.1802 2.26043 9.95594 2.14076 9.7123 2.09346C9.46866 2.04616 9.21665 2.07338 8.9883 2.17165C8.75994 2.26992 8.56555 2.4348 8.42982 2.64536C8.29408 2.85591 8.22314 3.10263 8.22599 3.35417C8.22977 3.68813 8.36326 4.0071 8.59749 4.2419C8.83172 4.47669 9.14779 4.60836 9.47714 4.60833ZM9.47714 2.85833C9.57385 2.85833 9.66838 2.88741 9.74879 2.9419C9.8292 2.99638 9.89187 3.07382 9.92888 3.16442C9.96589 3.25502 9.97557 3.35472 9.95671 3.4509C9.93784 3.54708 9.89127 3.63543 9.82289 3.70477C9.75451 3.77412 9.66738 3.82134 9.57253 3.84047C9.47769 3.8596 9.37937 3.84979 9.29003 3.81226C9.20068 3.77473 9.12432 3.71118 9.07059 3.62964C9.01686 3.5481 8.98819 3.45223 8.98819 3.35417C9.00234 3.23302 9.06004 3.12141 9.15024 3.04069C9.24045 2.95998 9.35684 2.91582 9.47714 2.91667V2.85833Z" fill="#191919"/>
<path d="M9.47714 4.75417C9.19271 4.75417 8.91467 4.66864 8.67817 4.50839C8.44168 4.34815 8.25735 4.12039 8.1485 3.85391C8.03966 3.58744 8.01118 3.29422 8.06667 3.01133C8.12216 2.72844 8.25912 2.46859 8.46025 2.26464C8.66137 2.06069 8.91762 1.92179 9.19658 1.86552C9.47555 1.80925 9.7647 1.83813 10.0275 1.94851C10.2903 2.05889 10.5149 2.24581 10.6729 2.48563C10.8309 2.72545 10.9153 3.0074 10.9153 3.29583C10.9153 3.68261 10.7637 4.05354 10.494 4.32703C10.2243 4.60052 9.85855 4.75417 9.47714 4.75417ZM9.47714 2.23125C9.32211 2.21325 9.16507 2.22867 9.01632 2.27652C8.86758 2.32437 8.73048 2.40356 8.61403 2.5089C8.49758 2.61424 8.4044 2.74335 8.34059 2.88776C8.27679 3.03217 8.24381 3.18863 8.24381 3.34688C8.24381 3.50512 8.27679 3.66158 8.34059 3.80599C8.4044 3.95041 8.49758 4.07951 8.61403 4.18485C8.73048 4.29019 8.86758 4.36938 9.01632 4.41723C9.16507 4.46508 9.32211 4.48051 9.47714 4.4625C9.74725 4.43113 9.99653 4.3001 10.1775 4.09436C10.3585 3.88863 10.4585 3.62257 10.4585 3.34688C10.4585 3.07118 10.3585 2.80512 10.1775 2.59939C9.99653 2.39365 9.74725 2.26262 9.47714 2.23125ZM9.47714 3.98125C9.31178 3.98129 9.15298 3.9157 9.03472 3.7985C8.91645 3.6813 8.84813 3.52181 8.84437 3.35417C8.84437 3.2699 8.86074 3.18646 8.89254 3.10861C8.92434 3.03076 8.97095 2.96003 9.02971 2.90044C9.08847 2.84086 9.15822 2.79359 9.23499 2.76135C9.31176 2.7291 9.39405 2.7125 9.47714 2.7125C9.63738 2.72361 9.78745 2.79608 9.89694 2.91523C10.0064 3.03439 10.0671 3.1913 10.0668 3.35417C10.0669 3.51555 10.0058 3.67078 9.89593 3.78758C9.78611 3.90438 9.63611 3.97375 9.47714 3.98125ZM9.47714 3.00417C9.42694 2.99361 9.37505 2.99453 9.32524 3.00685C9.27543 3.01918 9.22895 3.0426 9.18919 3.07542C9.14942 3.10824 9.11737 3.14963 9.09535 3.19659C9.07333 3.24354 9.06191 3.29488 9.06191 3.34688C9.06191 3.39887 9.07333 3.45021 9.09535 3.49716C9.11737 3.54412 9.14942 3.58551 9.18919 3.61833C9.22895 3.65115 9.27543 3.67457 9.32524 3.6869C9.37505 3.69922 9.42694 3.70014 9.47714 3.68958C9.52735 3.70014 9.57924 3.69922 9.62905 3.6869C9.67886 3.67457 9.72533 3.65115 9.7651 3.61833C9.80486 3.58551 9.83692 3.54412 9.85894 3.49716C9.88095 3.45021 9.89237 3.39887 9.89237 3.34688C9.89237 3.29488 9.88095 3.24354 9.85894 3.19659C9.83692 3.14963 9.80486 3.10824 9.7651 3.07542C9.72533 3.0426 9.67886 3.01918 9.62905 3.00685C9.57924 2.99453 9.52735 2.99361 9.47714 3.00417Z" fill="#191919"/>
<path d="M9.77915 12.0604C9.69435 12.0097 9.5937 11.9935 9.49759 12.0152C9.40147 12.0368 9.31705 12.0947 9.26143 12.1771L6.85978 15.8813C6.81836 15.9438 6.79624 16.0174 6.79624 16.0927C6.79624 16.168 6.81836 16.2416 6.85978 16.3042L9.26143 20.0083C9.29431 20.0632 9.34088 20.1082 9.39644 20.1389C9.45199 20.1697 9.51455 20.185 9.57781 20.1833C9.64329 20.2045 9.71367 20.2045 9.77915 20.1833C9.82081 20.1566 9.85685 20.1218 9.8852 20.0809C9.91355 20.0401 9.93365 19.9939 9.94434 19.9451C9.95504 19.8963 9.95611 19.8459 9.9475 19.7966C9.9389 19.7474 9.92078 19.7004 9.8942 19.6583L7.62198 16.0417L9.8942 12.5417C9.93223 12.4602 9.94155 12.368 9.92061 12.2804C9.89967 12.1928 9.84974 12.1152 9.77915 12.0604Z" fill="#191919"/>
<path d="M9.57781 20.3292C9.49203 20.3321 9.407 20.3121 9.33127 20.2711C9.25554 20.2302 9.19177 20.1697 9.14638 20.0958L6.74474 16.3771C6.68909 16.293 6.65938 16.194 6.65938 16.0927C6.65938 15.9914 6.68909 15.8924 6.74474 15.8083L9.14638 12.1042C9.21769 11.9874 9.33127 11.9037 9.46276 11.8708C9.58729 11.8198 9.72653 11.8198 9.85105 11.8708C9.91199 11.9209 9.96245 11.9828 9.99949 12.053C10.0365 12.1231 10.0594 12.2 10.0668 12.2792C10.1157 12.4057 10.1157 12.5464 10.0668 12.6729L7.79456 16.0417L10.0668 19.5125C10.1166 19.6439 10.1166 19.7894 10.0668 19.9208C10.0344 20.0542 9.9518 20.1694 9.83667 20.2417C9.76153 20.2976 9.671 20.3282 9.57781 20.3292ZM9.57781 12.1479C9.51961 12.1639 9.46875 12.2 9.434 12.25L6.97483 16.0417C6.95343 16.082 6.94223 16.1271 6.94223 16.1729C6.94223 16.2187 6.95343 16.2638 6.97483 16.3042L9.37648 20.0083C9.41168 20.0614 9.46576 20.0986 9.5274 20.1122C9.58905 20.1258 9.65348 20.1147 9.70724 20.0812C9.75673 20.04 9.79199 19.9838 9.80791 19.9208C9.8207 19.8935 9.82734 19.8636 9.82734 19.8333C9.82734 19.8031 9.8207 19.7732 9.80791 19.7458L7.55008 16.2458C7.53619 16.2214 7.52888 16.1938 7.52888 16.1656C7.52888 16.1375 7.53619 16.1098 7.55008 16.0854L9.80791 12.5854C9.82178 12.5584 9.82901 12.5284 9.82901 12.4979C9.82901 12.4675 9.82178 12.4374 9.80791 12.4104C9.79213 12.3514 9.75652 12.2998 9.70724 12.2646L9.57781 12.1479Z" fill="#191919"/>
<path d="M18.8536 12.1771C18.8273 12.1348 18.793 12.0983 18.7526 12.0695C18.7123 12.0408 18.6668 12.0204 18.6187 12.0096C18.5706 11.9987 18.5208 11.9976 18.4723 12.0064C18.4238 12.0151 18.3774 12.0335 18.3359 12.0604C18.2508 12.1171 18.191 12.2054 18.1695 12.3063C18.148 12.4073 18.1664 12.5127 18.2209 12.6L20.4931 16.0417L18.2209 19.5417C18.1943 19.5838 18.1762 19.6308 18.1675 19.68C18.1589 19.7292 18.16 19.7796 18.1707 19.8284C18.1814 19.8772 18.2015 19.9234 18.2298 19.9643C18.2582 20.0052 18.2942 20.04 18.3359 20.0667C18.4014 20.0879 18.4718 20.0879 18.5372 20.0667C18.6005 20.0683 18.6631 20.053 18.7186 20.0223C18.7742 19.9915 18.8207 19.9465 18.8536 19.8917L21.2553 16.1875C21.2905 16.1228 21.309 16.05 21.309 15.976C21.309 15.9021 21.2905 15.8293 21.2553 15.7646L18.8536 12.1771Z" fill="#191919"/>
<path d="M18.5372 20.3292C18.4349 20.3295 18.3349 20.299 18.2496 20.2417C18.1942 20.2057 18.1466 20.1587 18.1095 20.1036C18.0724 20.0484 18.0467 19.9863 18.0339 19.9208C18.0063 19.7804 18.032 19.6346 18.1058 19.5125L20.3205 16.0417L18.1058 12.6729C18.0329 12.5559 18.0072 12.4149 18.0339 12.2792C18.0633 12.1445 18.14 12.0253 18.2496 11.9437C18.3744 11.8941 18.5131 11.8941 18.6379 11.9437C18.7059 11.9574 18.7704 11.9852 18.8273 12.0254C18.8842 12.0655 18.9324 12.1172 18.9687 12.1771L21.3703 15.8812C21.4272 15.9676 21.4576 16.0691 21.4576 16.1729C21.4576 16.2767 21.4272 16.3782 21.3703 16.4646L18.9687 20.1687C18.9145 20.2283 18.8471 20.2739 18.7721 20.3018C18.697 20.3297 18.6165 20.3391 18.5372 20.3292ZM18.5372 12.1479H18.4078C18.3585 12.1832 18.3229 12.2347 18.3071 12.2937C18.2848 12.3499 18.2848 12.4126 18.3071 12.4687L20.6081 16.0417C20.622 16.0661 20.6293 16.0937 20.6293 16.1219C20.6293 16.15 20.622 16.1777 20.6081 16.2021L18.3359 19.7021C18.3149 19.7585 18.3149 19.8207 18.3359 19.8771C18.3518 19.94 18.3871 19.9962 18.4366 20.0375C18.4903 20.071 18.5548 20.0821 18.6164 20.0685C18.6781 20.0549 18.7321 20.0177 18.7673 19.9646L21.169 16.2604C21.1904 16.2201 21.2016 16.175 21.2016 16.1292C21.2016 16.0834 21.1904 16.0383 21.169 15.9979L18.6954 12.25C18.6547 12.1998 18.5993 12.1641 18.5372 12.1479Z" fill="#191919"/>
<path d="M16.567 8.95417C16.4754 8.92081 16.3746 8.925 16.2859 8.96585C16.1973 9.0067 16.1279 9.08099 16.0925 9.17292L11.3179 22.2979C11.2858 22.3927 11.2919 22.4965 11.335 22.5867C11.3782 22.6769 11.4547 22.7461 11.548 22.7792C11.5901 22.7926 11.6353 22.7926 11.6775 22.7792C11.7525 22.7761 11.825 22.751 11.8862 22.707C11.9475 22.663 11.9949 22.602 12.0226 22.5313L16.7971 9.40625C16.8209 9.31538 16.8105 9.21881 16.7679 9.13527C16.7254 9.05173 16.6538 8.98719 16.567 8.95417Z" fill="#191919"/>
<path d="M11.6775 22.9396H11.4905C11.3623 22.8874 11.259 22.7868 11.2027 22.6589C11.1463 22.5309 11.1412 22.3858 11.1885 22.2542L15.9486 9.12917C15.9888 8.98804 16.0825 8.86883 16.2092 8.79773C16.3359 8.72664 16.4853 8.70947 16.6246 8.75C16.7528 8.80213 16.856 8.9028 16.9124 9.03072C16.9687 9.15864 16.9738 9.30377 16.9266 9.43542L12.1664 22.5604C12.1319 22.6661 12.0668 22.7588 11.9796 22.8264C11.8924 22.8941 11.7871 22.9335 11.6775 22.9396ZM16.4376 9.07083C16.3891 9.06906 16.3414 9.08393 16.3023 9.11304C16.2631 9.14215 16.2348 9.1838 16.2219 9.23125L11.5049 22.3271C11.486 22.3871 11.4903 22.4522 11.5171 22.5091C11.5438 22.5659 11.5908 22.6104 11.6487 22.6333C11.6779 22.6448 11.7091 22.6501 11.7404 22.6489C11.7717 22.6477 11.8024 22.6401 11.8307 22.6264C11.8589 22.6127 11.8842 22.5934 11.9048 22.5695C11.9254 22.5456 11.9411 22.5177 11.9507 22.4875L16.7108 9.3625C16.7247 9.33412 16.7324 9.30301 16.7333 9.27134C16.7341 9.23967 16.7282 9.20818 16.7159 9.17905C16.7036 9.14993 16.6852 9.12386 16.662 9.10266C16.6387 9.08145 16.6113 9.06562 16.5814 9.05625L16.4376 9.07083Z" fill="#191919"/>
</g>
<defs>
<clipPath id="clip0_244_1315">
<rect width="28" height="28" fill="white"/>
</clipPath>
</defs>
</svg>
