<svg width="24" height="22" viewBox="0 0 24 22" fill="none" xmlns="http://www.w3.org/2000/svg">
<path fill-rule="evenodd" clip-rule="evenodd" d="M13.419 3.2975C14.4534 2.26316 15.8563 1.68207 17.3191 1.68207C18.7818 1.68207 20.1847 2.26316 21.2191 3.2975C22.2534 4.33184 22.8345 5.73472 22.8345 7.1975C22.8345 8.66028 22.2534 10.0632 21.2191 11.0975L19.7999 12.5167L11.9999 20.3167L4.19988 12.5167L2.78072 11.0975C1.74637 10.0632 1.16528 8.66028 1.16528 7.1975C1.16528 5.73472 1.74637 4.33184 2.78072 3.2975C3.81506 2.26316 5.21793 1.68207 6.68072 1.68207C8.1435 1.68207 9.54637 2.26316 10.5807 3.2975L11.9999 4.71667L13.419 3.2975Z" stroke="black" stroke-width="1.5" stroke-linecap="round" stroke-linejoin="round"/>
</svg>
