<svg width="22" height="22" viewBox="0 0 22 22" fill="none" xmlns="http://www.w3.org/2000/svg">
<path fill-rule="evenodd" clip-rule="evenodd" d="M10.92 1.04584L1.10996 8.88584C1.08799 8.90631 1.07044 8.93108 1.0584 8.95859C1.04637 8.98611 1.04009 9.0158 1.03996 9.04584L0.959961 18.8058C0.959961 19.3363 1.17067 19.845 1.54575 20.22C1.92082 20.5951 2.42953 20.8058 2.95996 20.8058L19.04 20.9458C19.5704 20.9458 20.0791 20.7351 20.4542 20.36C20.8292 19.985 21.04 19.4763 21.04 18.9458V9.04584C21.0392 9.01492 21.0317 8.98455 21.0178 8.95689C21.004 8.92923 20.9843 8.90497 20.96 8.88584L11.16 1.04584C11.127 1.01632 11.0842 1 11.04 1C10.9957 1 10.953 1.01632 10.92 1.04584Z" fill="#CEE1FF" stroke="#0064FE" stroke-width="1.3" stroke-linecap="round" stroke-linejoin="round"/>
</svg>
