<svg width="28" height="28" viewBox="0 0 28 28" fill="none" xmlns="http://www.w3.org/2000/svg">
<g clip-path="url(#clip0_244_1301)">
<path opacity="0.4" d="M17.5166 7.23005H10.8078V26.963H17.5166V7.23005Z" fill="#0064FE"/>
<path opacity="0.4" d="M7.19537 13.6714H0.486572V27.4888H7.19537V13.6714Z" fill="#0064FE"/>
<path opacity="0.4" d="M27.7199 0.350547H21.247V27.2405H27.7199V0.350547Z" fill="#0064FE"/>
<path d="M6.94471 27.8539H0.60453C0.553631 27.856 0.502852 27.8476 0.4554 27.8292C0.407947 27.8109 0.36485 27.783 0.328828 27.7473C0.292807 27.7116 0.264642 27.6689 0.246113 27.6219C0.227583 27.5749 0.219091 27.5246 0.221171 27.4742V13.5983C0.221171 13.4976 0.26156 13.401 0.333454 13.3298C0.405348 13.2586 0.502857 13.2186 0.60453 13.2186H6.94471C6.99864 13.2124 7.05329 13.2176 7.10503 13.2339C7.15677 13.2501 7.20444 13.2771 7.24486 13.313C7.28529 13.3489 7.31755 13.3929 7.33952 13.4421C7.36149 13.4913 7.37267 13.5445 7.3723 13.5983V27.4742C7.37523 27.5287 7.36579 27.5831 7.34467 27.6335C7.32355 27.6839 7.2913 27.729 7.25028 27.7655C7.20926 27.8019 7.16051 27.8287 7.10763 27.8441C7.05475 27.8594 6.99908 27.8627 6.94471 27.8539ZM1.04687 27.0944H6.56135V13.9489H0.98789L1.04687 27.0944Z" fill="#191919"/>
<path d="M6.94472 28H0.604536C0.463758 28 0.328745 27.9446 0.2292 27.846C0.129654 27.7474 0.0737305 27.6136 0.0737305 27.4742V13.5983C0.0916267 13.4719 0.155359 13.3562 0.253032 13.2729C0.350705 13.1896 0.475646 13.1443 0.604536 13.1455H6.94472C7.08549 13.1455 7.22051 13.2009 7.32005 13.2995C7.4196 13.3982 7.47552 13.5319 7.47552 13.6714V27.5472C7.45762 27.6737 7.39389 27.7893 7.29622 27.8727C7.19855 27.956 7.07361 28.0012 6.94472 28ZM0.604536 13.3938C0.541968 13.3938 0.481962 13.4185 0.43772 13.4623C0.393478 13.5061 0.368623 13.5656 0.368623 13.6275V27.5034C0.368512 27.5668 0.392887 27.6278 0.436751 27.674C0.480615 27.7202 0.540646 27.748 0.604536 27.7517H6.94472C7.00861 27.748 7.06864 27.7202 7.1125 27.674C7.15636 27.6278 7.18074 27.5668 7.18063 27.5034V13.5983C7.18063 13.5364 7.15577 13.4769 7.11153 13.4331C7.06729 13.3893 7.00728 13.3646 6.94472 13.3646L0.604536 13.3938ZM6.50238 27.2697H0.987896C0.949907 27.2664 0.914303 27.25 0.887338 27.2232C0.860373 27.1965 0.843772 27.1613 0.84045 27.1236V13.9781C0.844117 13.9419 0.861257 13.9084 0.888521 13.8841C0.915785 13.8598 0.951216 13.8465 0.987896 13.8466H6.56136C6.59803 13.8465 6.63347 13.8598 6.66073 13.8841C6.68799 13.9084 6.70513 13.9419 6.7088 13.9781V27.1236C6.69961 27.1559 6.68046 27.1845 6.65401 27.2055C6.62757 27.2265 6.59517 27.2387 6.56136 27.2405L6.50238 27.2697ZM1.07636 26.9776H6.41391V14.1242H1.13534L1.07636 26.9776Z" fill="#191919"/>
<path d="M17.3249 27.8539H10.9847C10.8831 27.8539 10.7855 27.8139 10.7137 27.7427C10.6418 27.6715 10.6014 27.5749 10.6014 27.4742V7.02556C10.6014 6.92485 10.6418 6.82825 10.7137 6.75703C10.7855 6.68581 10.8831 6.6458 10.9847 6.6458H17.3249C17.3765 6.64384 17.4279 6.65221 17.4761 6.67041C17.5244 6.68861 17.5684 6.71627 17.6056 6.75173C17.6427 6.7872 17.6723 6.82973 17.6925 6.87678C17.7127 6.92383 17.7231 6.97444 17.723 7.02556V27.4742C17.7231 27.5253 17.7127 27.5759 17.6925 27.623C17.6723 27.67 17.6427 27.7126 17.6056 27.748C17.5684 27.7835 17.5244 27.8111 17.4761 27.8293C17.4279 27.8475 17.3765 27.8559 17.3249 27.8539ZM11.4271 27.0944H17.0005V7.46375H11.3681L11.4271 27.0944Z" fill="#191919"/>
<path d="M17.3249 28H10.9847C10.844 28 10.7089 27.9446 10.6094 27.846C10.5099 27.7474 10.4539 27.6136 10.4539 27.4742V7.02556C10.4539 6.88611 10.5099 6.75236 10.6094 6.65375C10.7089 6.55514 10.844 6.49974 10.9847 6.49974H17.3249C17.4657 6.49974 17.6007 6.55514 17.7002 6.65375C17.7998 6.75236 17.8557 6.88611 17.8557 7.02556V27.4742C17.8557 27.6136 17.7998 27.7474 17.7002 27.846C17.6007 27.9446 17.4657 28 17.3249 28ZM10.9847 6.83568C10.9208 6.83941 10.8608 6.86721 10.8169 6.91338C10.7731 6.95955 10.7487 7.02059 10.7488 7.08399V27.5326C10.7487 27.596 10.7731 27.657 10.8169 27.7032C10.8608 27.7494 10.9208 27.7772 10.9847 27.7809H17.3249C17.3902 27.7774 17.452 27.7501 17.4982 27.7043C17.5445 27.6585 17.572 27.5973 17.5756 27.5326V7.08399C17.572 7.01927 17.5445 6.95813 17.4982 6.9123C17.452 6.86647 17.3902 6.83919 17.3249 6.83568H10.9847ZM16.8826 27.2843H11.3681C11.3316 27.2807 11.2978 27.2637 11.2732 27.2367C11.2487 27.2097 11.2352 27.1746 11.2354 27.1382V7.46375C11.2334 7.44455 11.2352 7.42514 11.2408 7.40665C11.2463 7.38815 11.2556 7.37094 11.2679 7.356C11.2803 7.34106 11.2955 7.32869 11.3127 7.3196C11.3298 7.31052 11.3487 7.3049 11.3681 7.30308H16.9416C16.9807 7.30308 17.0182 7.31847 17.0458 7.34586C17.0735 7.37325 17.089 7.4104 17.089 7.44914V27.0944C17.089 27.1332 17.0735 27.1703 17.0458 27.1977C17.0182 27.2251 16.9807 27.2405 16.9416 27.2405L16.8826 27.2843ZM11.4566 26.9922H16.7351V7.60981H11.5155L11.4566 26.9922Z" fill="#191919"/>
<path d="M27.4692 27.8539H21.129C21.0273 27.8539 20.9298 27.8139 20.8579 27.7427C20.786 27.6715 20.7457 27.5749 20.7457 27.4742V0.525821C20.7457 0.425103 20.786 0.328509 20.8579 0.25729C20.9298 0.186071 21.0273 0.146061 21.129 0.146061H27.4692C27.5723 0.145991 27.6714 0.185529 27.7456 0.256357C27.8199 0.327185 27.8635 0.423781 27.8673 0.525821V27.4742C27.8673 27.5253 27.857 27.5759 27.8368 27.623C27.8166 27.67 27.787 27.7125 27.7499 27.748C27.7127 27.7835 27.6687 27.8111 27.6204 27.8293C27.5722 27.8475 27.5208 27.8559 27.4692 27.8539ZM21.5714 27.0944H27.1448V0.905581H21.5124L21.5714 27.0944Z" fill="#191919"/>
<path d="M27.4692 28H21.129C20.9882 28 20.8532 27.9446 20.7537 27.846C20.6541 27.7474 20.5982 27.6136 20.5982 27.4742V0.525822C20.5982 0.45677 20.6119 0.388395 20.6386 0.324599C20.6653 0.260803 20.7044 0.202837 20.7537 0.15401C20.803 0.105183 20.8615 0.0664515 20.9259 0.0400265C20.9903 0.0136015 21.0593 7.37447e-07 21.129 7.37447e-07H27.4692C27.5401 -0.001952 27.6107 0.0102058 27.6769 0.0357551C27.743 0.0613044 27.8032 0.0997266 27.8541 0.148749C27.905 0.197772 27.9454 0.256401 27.973 0.321167C28.0006 0.385934 28.0148 0.455524 28.0147 0.525822V27.4742C28.0148 27.5445 28.0006 27.6141 27.973 27.6788C27.9454 27.7436 27.905 27.8022 27.8541 27.8513C27.8032 27.9003 27.743 27.9387 27.6769 27.9642C27.6107 27.9898 27.5401 28.002 27.4692 28ZM21.129 0.292124C21.0665 0.292124 21.0064 0.316746 20.9622 0.360573C20.918 0.4044 20.8931 0.463842 20.8931 0.525822V27.4742C20.893 27.5376 20.9174 27.5986 20.9612 27.6448C21.0051 27.691 21.0651 27.7188 21.129 27.7225H27.4692C27.5345 27.719 27.5962 27.6917 27.6425 27.6459C27.6888 27.6 27.7163 27.5389 27.7199 27.4742V0.525822C27.7161 0.462532 27.688 0.403065 27.6414 0.359613C27.5948 0.31616 27.5332 0.292014 27.4692 0.292124H21.129ZM27.0269 27.2405H21.5124C21.4759 27.2368 21.4421 27.2199 21.4175 27.1929C21.393 27.1659 21.3795 27.1308 21.3797 27.0944V0.905582C21.3795 0.869247 21.393 0.834149 21.4175 0.80714C21.4421 0.780132 21.4759 0.763154 21.5124 0.759521H27.0858C27.1249 0.759521 27.1624 0.774909 27.1901 0.802301C27.2177 0.829693 27.2333 0.866844 27.2333 0.905582V27.0944C27.2333 27.1332 27.2177 27.1703 27.1901 27.1977C27.1624 27.2251 27.1249 27.2405 27.0858 27.2405H27.0269ZM21.6008 26.9484H26.8794V1.05164H21.6598L21.6008 26.9484Z" fill="#191919"/>
<path d="M10.3212 0.715703C10.3212 0.817813 10.3611 0.915971 10.4326 0.989523C10.5041 1.06307 10.6016 1.10629 10.7046 1.11007H12.9458L0.294896 10.385C0.215707 10.4457 0.163657 10.5347 0.149879 10.633C0.136101 10.7313 0.16169 10.831 0.221173 10.9108C0.282963 10.9925 0.374346 11.0473 0.476095 11.0637C0.577844 11.08 0.682026 11.0566 0.766723 10.9984L13.683 1.46062V4.07512C13.683 4.17584 13.7234 4.27243 13.7953 4.34365C13.8672 4.41487 13.9647 4.45488 14.0664 4.45488C14.168 4.45488 14.2655 4.41487 14.3374 4.34365C14.4093 4.27243 14.4497 4.17584 14.4497 4.07512V0.715703C14.4497 0.614985 14.4093 0.518391 14.3374 0.447172C14.2655 0.375954 14.168 0.335943 14.0664 0.335943H10.6604C10.5665 0.346738 10.48 0.391466 10.4174 0.461549C10.3549 0.531632 10.3206 0.622136 10.3212 0.715703Z" fill="#191919"/>
<path d="M0.53081 11.2175C0.446929 11.2182 0.36415 11.1986 0.289644 11.1604C0.215137 11.1222 0.151147 11.0666 0.103216 10.9984C0.0557611 10.9415 0.0209543 10.8752 0.00106346 10.804C-0.0188274 10.7329 -0.0233561 10.6583 -0.0122277 10.5853C-0.00109923 10.5123 0.0254367 10.4424 0.0656515 10.3802C0.105866 10.318 0.158857 10.2649 0.221173 10.2243L12.5034 1.24153H10.6604C10.5196 1.24153 10.3846 1.18613 10.285 1.08752C10.1855 0.988905 10.1295 0.85516 10.1295 0.715704C10.1295 0.576247 10.1855 0.442503 10.285 0.343892C10.3846 0.245281 10.5196 0.189882 10.6604 0.189882H14.0664C14.1361 0.189882 14.2051 0.203483 14.2695 0.229908C14.3339 0.256333 14.3924 0.295065 14.4417 0.343892C14.491 0.392719 14.5301 0.450685 14.5568 0.514481C14.5834 0.578276 14.5972 0.646652 14.5972 0.715704V4.07512C14.5972 4.21458 14.5412 4.34832 14.4417 4.44693C14.3421 4.54554 14.2071 4.60094 14.0664 4.60094C13.9256 4.60094 13.7906 4.54554 13.691 4.44693C13.5915 4.34832 13.5355 4.21458 13.5355 4.07512V1.81117L0.840446 11.1153C0.748998 11.1775 0.641676 11.213 0.53081 11.2175ZM10.6604 0.482005C10.5978 0.482005 10.5378 0.506627 10.4935 0.550454C10.4493 0.594281 10.4244 0.653723 10.4244 0.715704C10.4243 0.779104 10.4487 0.840145 10.4926 0.886313C10.5364 0.932481 10.5965 0.960279 10.6604 0.964009H12.9458C12.9765 0.961502 13.0073 0.96861 13.0337 0.984331C13.0602 1.00005 13.081 1.0236 13.0932 1.05165C13.1111 1.07466 13.1209 1.10291 13.1209 1.13198C13.1209 1.16105 13.1111 1.1893 13.0932 1.21231L0.383364 10.5018C0.361032 10.5223 0.343216 10.5472 0.331033 10.5748C0.318849 10.6025 0.312561 10.6323 0.312561 10.6625C0.312561 10.6927 0.318849 10.7225 0.331033 10.7502C0.343216 10.7778 0.361032 10.8027 0.383364 10.8232C0.405362 10.8457 0.43171 10.8636 0.46084 10.8758C0.48997 10.8881 0.521287 10.8944 0.552927 10.8944C0.584566 10.8944 0.615883 10.8881 0.645013 10.8758C0.674143 10.8636 0.700491 10.8457 0.722489 10.8232L13.5945 1.46062C13.6177 1.45012 13.6428 1.44468 13.6683 1.44468C13.6937 1.44468 13.7188 1.45012 13.742 1.46062C13.7709 1.4525 13.8015 1.4525 13.8304 1.46062V4.07512C13.8304 4.1371 13.8553 4.19654 13.8995 4.24037C13.9438 4.2842 14.0038 4.30882 14.0664 4.30882C14.1289 4.30882 14.1889 4.2842 14.2332 4.24037C14.2774 4.19654 14.3023 4.1371 14.3023 4.07512V0.715704C14.3023 0.685014 14.2962 0.654625 14.2843 0.626271C14.2725 0.597918 14.2551 0.572155 14.2332 0.550454C14.2113 0.528753 14.1853 0.511539 14.1566 0.499795C14.128 0.48805 14.0973 0.482005 14.0664 0.482005H10.6604Z" fill="#191919"/>
</g>
<defs>
<clipPath id="clip0_244_1301">
<rect width="28" height="28" fill="white"/>
</clipPath>
</defs>
</svg>
