<svg width="30" height="27" viewBox="0 0 30 27" fill="none" xmlns="http://www.w3.org/2000/svg">
<path opacity="0.4" d="M20.9102 24.1321L17.4574 23.8698L16.9818 21.2293L25.5608 8.67358L29.2249 11.2092L20.9102 24.1321Z" fill="#0064FE"/>
<path d="M29.7534 11.4009C29.8208 11.3011 29.8457 11.1788 29.8226 11.0609C29.7995 10.9429 29.7303 10.8388 29.6301 10.7714L25.596 8.16579C25.5452 8.13346 25.4884 8.11143 25.4289 8.10097C25.3695 8.0905 25.3085 8.09181 25.2496 8.10481C25.1907 8.11781 25.1349 8.14225 25.0855 8.17672C25.0361 8.2112 24.9941 8.25502 24.9618 8.30568L22.0023 12.6425V6.20724C22.0015 6.08234 21.9508 5.96287 21.8614 5.87498L16.0305 0.296615C15.9898 0.254611 15.9403 0.221908 15.8856 0.200771C15.8308 0.179634 15.7721 0.170569 15.7134 0.174205H0.634178C0.512705 0.174205 0.396207 0.222107 0.310312 0.307373C0.224418 0.392639 0.176163 0.508285 0.176163 0.628869V26.3698C0.176163 26.4904 0.224418 26.606 0.310312 26.6913C0.396207 26.7766 0.512705 26.8245 0.634178 26.8245H21.5443C21.6658 26.8245 21.7823 26.7766 21.8682 26.6913C21.9541 26.606 22.0023 26.4904 22.0023 26.3698V23.5894C22.0105 23.5314 22.0105 23.4725 22.0023 23.4145V23.2571L29.7534 11.4009ZM16.1715 1.74804L20.3993 5.78755H16.6471C16.5782 5.7883 16.51 5.77421 16.4472 5.74623C16.3844 5.71826 16.3284 5.67707 16.2832 5.62553C16.2379 5.57398 16.2045 5.51329 16.1852 5.44767C16.166 5.38205 16.1613 5.31305 16.1715 5.24545V1.74804ZM21.1392 24.2888V25.9151H1.09219V1.08353H15.185V6.20724C15.185 6.32782 15.2332 6.44347 15.3191 6.52873C15.405 6.614 15.5215 6.6619 15.643 6.6619H21.1392V12.3802V13.989L16.9113 20.2318C16.8645 20.2933 16.8342 20.3655 16.8233 20.4417L16.4886 24.2189C16.48 24.2875 16.4873 24.3572 16.5099 24.4226C16.5326 24.488 16.57 24.5474 16.6192 24.5963C16.6685 24.6452 16.7283 24.6823 16.7942 24.7048C16.8601 24.7273 16.9303 24.7345 16.9994 24.726L21.1392 24.2888ZM21.3506 22.5401L20.963 23.1172C20.9276 23.1757 20.8789 23.2251 20.8207 23.2616C20.7626 23.298 20.6967 23.3204 20.6283 23.3271L18.0388 23.6243C17.9696 23.6328 17.8994 23.6256 17.8336 23.6031C17.7677 23.5806 17.7078 23.5435 17.6586 23.4946C17.6093 23.4457 17.5719 23.3863 17.5493 23.3209C17.5266 23.2555 17.5193 23.1858 17.5279 23.1172L17.616 20.7739C17.6301 20.6986 17.6601 20.6271 17.7041 20.5641L25.1556 9.56475C25.2237 9.46596 25.3271 9.39655 25.4449 9.37058C25.5626 9.34461 25.6859 9.36401 25.7898 9.42485L28.2913 11.0337C28.3423 11.0657 28.3864 11.1074 28.4212 11.1564C28.4559 11.2055 28.4805 11.2608 28.4936 11.3193C28.5067 11.3778 28.508 11.4383 28.4975 11.4974C28.4869 11.5564 28.4647 11.6127 28.4322 11.6632L21.3506 22.5401Z" fill="#191919"/>
<path d="M21.5443 27H0.634175C0.465981 27 0.304676 26.9337 0.185746 26.8156C0.0668147 26.6976 0 26.5374 0 26.3705L0 0.629534C0 0.462571 0.0668147 0.302447 0.185746 0.184386C0.304676 0.0663257 0.465981 0 0.634175 0L15.7134 0C15.8772 0.00131561 16.0344 0.0637432 16.1538 0.17487L21.9847 5.75324C22.0462 5.81215 22.0951 5.8828 22.1284 5.96093C22.1617 6.03906 22.1787 6.12307 22.1785 6.2079V12.0835L24.8209 8.20142C24.8654 8.13302 24.9233 8.07412 24.991 8.02818C25.0588 7.98225 25.1351 7.9502 25.2155 7.93391C25.2959 7.91762 25.3787 7.91743 25.4592 7.93334C25.5397 7.94924 25.6161 7.98094 25.6841 8.02656L29.7181 10.6146C29.8371 10.7199 29.9176 10.8614 29.9472 11.0168C29.9818 11.1796 29.9501 11.3493 29.8591 11.489L22.0904 23.3102C22.0989 23.3799 22.0989 23.4504 22.0904 23.5201V26.3005C22.1104 26.465 22.0643 26.6306 21.9621 26.7616C21.8599 26.8925 21.7098 26.9782 21.5443 27ZM0.634175 0.349741C0.559422 0.349741 0.487731 0.379219 0.434873 0.43169C0.382015 0.484162 0.352319 0.555328 0.352319 0.629534V26.3705C0.352319 26.4447 0.382015 26.5158 0.434873 26.5683C0.487731 26.6208 0.559422 26.6503 0.634175 26.6503H21.5443C21.6191 26.6503 21.6908 26.6208 21.7436 26.5683C21.7965 26.5158 21.8262 26.4447 21.8262 26.3705V23.59C21.8344 23.5555 21.8344 23.5196 21.8262 23.4851V23.2578C21.8168 23.2294 21.8168 23.1987 21.8262 23.1703L29.6124 11.3141C29.6296 11.2787 29.6385 11.2398 29.6385 11.2005C29.6385 11.1611 29.6296 11.1223 29.6124 11.0868C29.6095 11.0494 29.5966 11.0134 29.5749 10.9826C29.5532 10.9519 29.5236 10.9274 29.4891 10.9119L25.4903 8.32383C25.438 8.27464 25.3686 8.24722 25.2965 8.24722C25.2245 8.24722 25.1551 8.27464 25.1028 8.32383L22.1433 12.7481C22.1138 12.7649 22.0804 12.7738 22.0464 12.7738C22.0124 12.7738 21.979 12.7649 21.9495 12.7481C21.9138 12.7343 21.8831 12.7103 21.8612 12.6792C21.8392 12.648 21.8271 12.6112 21.8262 12.5732V6.2079C21.8283 6.16861 21.8215 6.12934 21.8062 6.09302C21.791 6.05669 21.7677 6.02424 21.7381 5.99806L15.8544 0.419689C15.7858 0.39702 15.7116 0.39702 15.643 0.419689L0.634175 0.349741ZM21.1392 26.0732H1.09219C1.04837 26.0734 1.00604 26.0574 0.973463 26.0283C0.940889 25.9992 0.920412 25.9591 0.91603 25.9158V1.0842C0.919999 1.03914 0.939834 0.996916 0.97205 0.964935C1.00427 0.932955 1.0468 0.913266 1.09219 0.909326H15.185C15.2304 0.913266 15.2729 0.932955 15.3051 0.964935C15.3373 0.996916 15.3572 1.03914 15.3611 1.0842V6.2079C15.3611 6.28211 15.3908 6.35327 15.4437 6.40575C15.4965 6.45822 15.5682 6.48769 15.643 6.48769H21.1392C21.1846 6.49163 21.2271 6.51132 21.2593 6.5433C21.2915 6.57528 21.3114 6.61751 21.3153 6.66256V13.9896C21.323 14.0242 21.323 14.06 21.3153 14.0946L17.0875 20.3199C17.0727 20.3654 17.0727 20.4144 17.0875 20.4598L16.7352 24.237C16.7345 24.3212 16.766 24.4024 16.8233 24.4644C16.8563 24.4947 16.8952 24.518 16.9376 24.533C16.98 24.5481 17.025 24.5544 17.0699 24.5518L21.1392 24.1146C21.1571 24.1018 21.1787 24.0949 21.2008 24.0949C21.2229 24.0949 21.2445 24.1018 21.2625 24.1146C21.2786 24.1599 21.2786 24.2093 21.2625 24.2545V25.8808C21.2685 25.9222 21.2594 25.9644 21.2367 25.9997C21.2141 26.035 21.1795 26.0611 21.1392 26.0732ZM1.26835 25.7409H20.9102V24.4819L16.9642 24.9016C16.8712 24.9142 16.7765 24.9049 16.6878 24.8746C16.599 24.8442 16.5187 24.7935 16.4533 24.7267C16.3828 24.6635 16.3285 24.5845 16.2948 24.4963C16.2611 24.4082 16.249 24.3133 16.2595 24.2196L16.6119 20.4424C16.6117 20.3342 16.6491 20.2292 16.7176 20.1451L20.9102 13.9896V6.81995H15.7134C15.5453 6.81995 15.3839 6.75362 15.265 6.63556C15.1461 6.5175 15.0793 6.35738 15.0793 6.19041V1.25907H1.26835V25.7409ZM17.9154 23.8873C17.8325 23.8883 17.7502 23.8717 17.6743 23.8385C17.5983 23.8053 17.5304 23.7564 17.475 23.6949C17.4045 23.6317 17.3502 23.5528 17.3165 23.4646C17.2828 23.3764 17.2707 23.2816 17.2813 23.1878L17.5103 20.7571C17.5102 20.6489 17.5475 20.544 17.616 20.4598L25.0675 9.46049C25.1637 9.32477 25.3088 9.23094 25.4727 9.1984C25.6367 9.16585 25.8069 9.19708 25.9483 9.28562L28.4322 10.8944C28.5045 10.9386 28.5669 10.9971 28.6154 11.0663C28.6639 11.1355 28.6975 11.2139 28.714 11.2966C28.7468 11.4594 28.7152 11.6284 28.626 11.7688L21.4563 22.7332L21.0687 23.3102C21.0207 23.39 20.954 23.4572 20.8742 23.5059C20.7945 23.5546 20.7041 23.5835 20.6107 23.59L18.0211 23.8698L17.9154 23.8873ZM25.596 9.53044C25.5504 9.52951 25.5054 9.54029 25.4653 9.56174C25.4252 9.58319 25.3913 9.61457 25.367 9.65285L17.8978 20.6522C17.883 20.6977 17.883 20.7466 17.8978 20.7921L17.616 23.2228C17.6153 23.3069 17.6468 23.3882 17.7041 23.4501C17.7371 23.4804 17.776 23.5038 17.8184 23.5188C17.8608 23.5338 17.9058 23.5402 17.9507 23.5376L20.5402 23.2403C20.5828 23.2383 20.6242 23.2262 20.6611 23.2048C20.6979 23.1835 20.7289 23.1537 20.7516 23.1179L21.1392 22.5583C21.1392 22.5583 21.1392 22.5583 21.1392 22.4534L28.2913 11.5764C28.3169 11.5088 28.3169 11.4342 28.2913 11.3666C28.2766 11.2933 28.2397 11.2262 28.1856 11.1742L25.6841 9.5829C25.6582 9.56021 25.6284 9.54242 25.596 9.53044ZM20.3993 5.92811H16.6471C16.5592 5.92841 16.4721 5.91056 16.3915 5.8757C16.3109 5.84083 16.2385 5.78971 16.1789 5.72558C16.1193 5.66145 16.0737 5.58571 16.0451 5.50317C16.0166 5.42062 16.0056 5.33309 16.0129 5.24611V1.7487C16.0019 1.70929 16.0068 1.66717 16.0265 1.63127C16.0462 1.59536 16.0793 1.56849 16.1186 1.55635C16.1436 1.53648 16.1747 1.52566 16.2067 1.52566C16.2387 1.52566 16.2698 1.53648 16.2948 1.55635L20.5226 5.59586C20.5426 5.62067 20.5535 5.6515 20.5535 5.68329C20.5535 5.71508 20.5426 5.74591 20.5226 5.77073C20.5207 5.80631 20.5078 5.84045 20.4858 5.86857C20.4637 5.8967 20.4336 5.91747 20.3993 5.92811ZM16.3476 2.11593V5.24611C16.3521 5.32189 16.3856 5.39308 16.4413 5.44511C16.497 5.49713 16.5706 5.52604 16.6471 5.52591H19.9765L16.3476 2.11593Z" fill="#191919"/>
</svg>
