<svg width="22" height="22" viewBox="0 0 22 22" fill="none" xmlns="http://www.w3.org/2000/svg">
<path d="M19 1H3C1.89543 1 1 1.89543 1 3V19C1 20.1046 1.89543 21 3 21H19C20.1046 21 21 20.1046 21 19V3C21 1.89543 20.1046 1 19 1Z" fill="#CEE1FF"/>
<path d="M5 20.6667L5.52667 18.7467C7.26667 12.4133 14.7333 12.4133 16.4733 18.7467L17 20.6667" fill="#CEE1FF"/>
<path d="M11 13.9867C12.8409 13.9867 14.3333 12.4943 14.3333 10.6533C14.3333 8.81239 12.8409 7.32001 11 7.32001C9.15905 7.32001 7.66667 8.81239 7.66667 10.6533C7.66667 12.4943 9.15905 13.9867 11 13.9867Z" fill="#CEE1FF"/>
<path d="M4.37316 20.4947C4.27819 20.8409 4.48186 21.1986 4.82805 21.2935C5.17425 21.3885 5.53188 21.1848 5.62684 20.8386L4.37316 20.4947ZM5.52667 18.7467L4.89989 18.5745L4.89982 18.5747L5.52667 18.7467ZM16.4733 18.7467L17.1002 18.5747L17.1001 18.5745L16.4733 18.7467ZM16.3732 20.8386C16.4681 21.1848 16.8258 21.3885 17.1719 21.2935C17.5181 21.1986 17.7218 20.8409 17.6268 20.4947L16.3732 20.8386ZM3 1.65H19V0.35H3V1.65ZM19 1.65C19.7456 1.65 20.35 2.25442 20.35 3H21.65C21.65 1.53645 20.4636 0.35 19 0.35V1.65ZM20.35 3V19H21.65V3H20.35ZM20.35 19C20.35 19.7456 19.7456 20.35 19 20.35V21.65C20.4636 21.65 21.65 20.4636 21.65 19H20.35ZM19 20.35H3V21.65H19V20.35ZM3 20.35C2.25442 20.35 1.65 19.7456 1.65 19H0.35C0.35 20.4636 1.53645 21.65 3 21.65V20.35ZM1.65 19V3H0.35V19H1.65ZM1.65 3C1.65 2.25442 2.25442 1.65 3 1.65V0.35C1.53645 0.35 0.35 1.53645 0.35 3H1.65ZM5.62684 20.8386L6.15351 18.9186L4.89982 18.5747L4.37316 20.4947L5.62684 20.8386ZM6.15344 18.9189C6.95541 15.9998 9.02537 14.6467 11 14.6467C12.9746 14.6467 15.0446 15.9998 15.8466 18.9189L17.1001 18.5745C16.1621 15.1602 13.6287 13.3467 11 13.3467C8.37129 13.3467 5.83792 15.1602 4.89989 18.5745L6.15344 18.9189ZM15.8465 18.9186L16.3732 20.8386L17.6268 20.4947L17.1002 18.5747L15.8465 18.9186ZM13.6833 10.6533C13.6833 12.1353 12.482 13.3367 11 13.3367V14.6367C13.1999 14.6367 14.9833 12.8533 14.9833 10.6533H13.6833ZM11 13.3367C9.51804 13.3367 8.31667 12.1353 8.31667 10.6533H7.01667C7.01667 12.8533 8.80007 14.6367 11 14.6367V13.3367ZM8.31667 10.6533C8.31667 9.17138 9.51804 7.97001 11 7.97001V6.67001C8.80007 6.67001 7.01667 8.45341 7.01667 10.6533H8.31667ZM11 7.97001C12.482 7.97001 13.6833 9.17138 13.6833 10.6533H14.9833C14.9833 8.45341 13.1999 6.67001 11 6.67001V7.97001Z" fill="#0064FE"/>
</svg>
