<svg width="22" height="22" viewBox="0 0 22 22" fill="none" xmlns="http://www.w3.org/2000/svg">
<path d="M19 1H3C1.89543 1 1 1.89543 1 3V19C1 20.1046 1.89543 21 3 21H19C20.1046 21 21 20.1046 21 19V3C21 1.89543 20.1046 1 19 1Z" stroke="#999999" stroke-width="1.3" stroke-linecap="round" stroke-linejoin="bevel"/>
<path d="M14.2715 14.584C16.094 12.7616 16.094 9.80679 14.2715 7.98434C12.4491 6.1619 9.49431 6.1619 7.67186 7.98435C5.84941 9.80679 5.84941 12.7616 7.67186 14.584C9.49431 16.4065 12.4491 16.4065 14.2715 14.584Z" stroke="#999999" stroke-width="1.3" stroke-linecap="round" stroke-linejoin="bevel"/>
<path d="M11.0377 15.951L11.0377 20.5519" stroke="#999999" stroke-width="1.3" stroke-linecap="round" stroke-linejoin="bevel"/>
</svg>
