<svg width="22" height="22" viewBox="0 0 22 22" fill="none" xmlns="http://www.w3.org/2000/svg">
<path d="M19 1H3C1.89543 1 1 1.89543 1 3V19C1 20.1046 1.89543 21 3 21H19C20.1046 21 21 20.1046 21 19V3C21 1.89543 20.1046 1 19 1Z" fill="#CEE1FF" stroke="#0064FE" stroke-width="1.3" stroke-linecap="round" stroke-linejoin="bevel"/>
<path d="M14.2714 14.584C16.0939 12.7616 16.0939 9.80679 14.2714 7.98434C12.449 6.1619 9.49423 6.1619 7.67178 7.98435C5.84933 9.80679 5.84933 12.7616 7.67178 14.584C9.49423 16.4065 12.449 16.4065 14.2714 14.584Z" fill="#CEE1FF" stroke="#0064FE" stroke-width="1.3" stroke-linecap="round" stroke-linejoin="bevel"/>
<path d="M11.0376 15.951L11.0376 20.5519" stroke="#0064FE" stroke-width="1.3" stroke-linecap="round" stroke-linejoin="bevel"/>
</svg>
