<svg width="22" height="22" viewBox="0 0 22 22" fill="none" xmlns="http://www.w3.org/2000/svg">
<path d="M19 1H3C1.89543 1 1 1.89543 1 3V19C1 20.1046 1.89543 21 3 21H19C20.1046 21 21 20.1046 21 19V3C21 1.89543 20.1046 1 19 1Z" fill="#0064FE" fill-opacity="0.15" stroke="#0064FE" stroke-width="1.3" stroke-linecap="round" stroke-linejoin="bevel"/>
<path d="M14.2714 14.5839C16.0939 12.7614 16.0939 9.80667 14.2714 7.98422C12.449 6.16178 9.49423 6.16178 7.67178 7.98423C5.84933 9.80667 5.84933 12.7614 7.67178 14.5839C9.49423 16.4063 12.449 16.4063 14.2714 14.5839Z" fill="#0064FE" fill-opacity="0.15" stroke="#0064FE" stroke-width="1.3" stroke-linecap="round" stroke-linejoin="bevel"/>
<path d="M11.0376 15.951L11.0376 20.5519" stroke="#0064FE" stroke-width="1.3" stroke-linecap="round" stroke-linejoin="bevel"/>
</svg>
